<?xml version="1.0" encoding="utf-8"?>
<!-- Generator: Adobe Illustrator 23.1.0, SVG Export Plug-In . SVG Version: 6.00 Build 0)  -->
<svg version="1.1" xmlns="http://www.w3.org/2000/svg" xmlns:xlink="http://www.w3.org/1999/xlink" x="0px" y="0px"
	 viewBox="0 0 960 1080" style="enable-background:new 0 0 960 1080;" xml:space="preserve">
<style type="text/css">
	.st0{fill:#F3E7D9;}
	.st1{fill:#33A86D;}
	.st2{fill:#288453;}
	.st3{fill:#665070;}
	.st4{fill:#FFACFF;}
	.st5{opacity:0.5;fill:#856792;}
	.st6{fill:#BB83C3;}
	.st7{fill:#4B3355;}
	.st8{fill:#856792;}
	.st9{fill:none;stroke:#856792;stroke-width:2;stroke-miterlimit:10;}
	.st10{fill:#F7BC4B;}
	.st11{fill:#CE9436;}
	.st12{fill:#1D2538;}
	.st13{fill:#1689CB;}
	.st14{fill:#29ABE2;}
	.st15{fill:#A96443;}
	.st16{fill:#7A462F;}
	.st17{fill:#34283A;}
	.st18{fill:#3E4C6F;}
	.st19{fill:none;stroke:#29ABE2;stroke-miterlimit:10;}
	.st20{fill:#C94039;}
	.st21{fill:#992C29;}
	.st22{fill:#273252;}
</style>
<g id="clouds">
	<path class="st0" d="M752.23,139.44c-21.19,0-45.43,6.12-58.13,9.82c-5.26-2.43-8.82-3.54-8.82-3.54s32.43-62.77-20.92-102.53
		C611,3.44,478.13,33.78,431.05,116.42c0,0-31.39-52.31-68-41.85s-68,85.79-64.86,121.36s18.83,80.56,18.83,80.56
		s-13.6-24.06-41.85-2.09c-28.25,21.97,21.5,92.93,8.37,73.23c-2.09-3.14-12.55-11.51-46.03,8.37
		c-33.48,19.88-51.26,35.57-43.94,49.17s60.68-11.51,126.59-37.66c31.47-12.49,126.64-56.71,215.91-100.87
		C647.02,217.84,754.84,170,773.15,160.36C812.91,139.44,782.57,139.44,752.23,139.44z"/>
	<path class="st0" d="M692.6,417.72c4.18,0,35.57-35.57,46.03-38.71c10.46-3.14-1.05-44.99,48.12-36.62c0,0-6.28-82.65,53.36-97.29
		c59.63-14.65,51.26,65.91,31.39,85.79c0,0,14.65-11.51,23.02-6.28c8.37,5.23,11.51,16.74-33.48,42.89s-129.73,60.68-155.88,71.14
		C679,449.11,692.6,417.72,692.6,417.72z"/>
	<path class="st0" d="M277.26,511.88c0,0-51.26,27.2-72.19,32.43s26.15-37.66,43.94-34.52c0,0-10.46-12.55,1.05-26.15
		c11.51-13.6,23.02,6.28,23.02,6.28s-4.18-51.26,19.88-62.77c24.06-11.51,39.75,36.62,39.75,36.62s51.26-7.32,25.11,5.23
		C331.66,481.54,277.26,511.88,277.26,511.88z"/>
</g>
<g id="ground">
	<path class="st1" d="M358.87,962.79c0,0-116.09,9.25-167.35,12.39s-88.47,15.95-76.93,23.7s20.92,6.28,37.66,9.42
		s71.14,9.42,71.14,9.42s-27.74,39.32,30.21,41.9c148.99,6.62,222.05-20.76,222.05-20.76s48.23,15.25,116.31,4.75
		c49.22-7.59-19.14-23.79,25.85-23.79s99.39-6.28,99.39-6.28s26.15-2.09,71.14-10.46c44.99-8.37-69.05-24.06-69.05-24.06
		s175.76-44.99,103.57-50.22c-72.19-5.23-267.82,8.89-443.06,8.89S358.87,962.79,358.87,962.79z"/>
	<path class="st2" d="M435.7,942.07c0,0-13.24,3.31-49.66,19.87s36.42,3.31,51.32,1.66c0,0-115.88,33.11-125.82,52.98
		c-9.93,19.87,16.55,21.52,59.6,14.9s187.58-28.22,205.28-46.35c13.24-1.66,44.7,13.24,109.26,3.31s64.56-59.6-44.7-57.94
		C531.72,932.14,435.7,942.07,435.7,942.07z"/>
	<path class="st1" d="M774.24,1001.06c0,0-5.53-11.76,2.77-14.53c8.3-2.77,6.92,7.61,6.92,7.61s-1.38-17.99,8.3-21.44
		c9.68-3.46,1.38,7.61,1.38,7.61s15.22-12.45,12.45-4.84c-2.77,7.61-7.61,15.91-7.61,15.91s17.29-9.68,8.3,1.38
		C797.76,1003.83,774.24,1001.06,774.24,1001.06z"/>
	<g>
		<path class="st1" d="M389.42,1031.47c0,0-4.66-10.95-0.93-25.32s3.73,17.11,3.73,17.11s3.73-10.26,10.25-15.74
			c6.52-5.47,0.93,11.63,0.93,11.63s14.91-18.48,13.05-8.21s-8.39,15.05-8.39,15.05s18.64-15.74,17.7-8.21
			C424.83,1025.31,398.73,1031.47,389.42,1031.47z"/>
		<path class="st1" d="M371.71,1032.84c0,0-15.84-23.95-4.66-16.42c11.18,7.53,11.18,17.79,11.18,17.79s-2.8-26,1.86-17.79
			C384.76,1024.63,381.03,1039.68,371.71,1032.84z"/>
	</g>
	<path class="st2" d="M535.96,1010.46c0,0-49.48,11.78-14.14,12.96c35.34,1.18,21.2-5.89,21.2-5.89s58.9-7.07,40.05-11.78
		S535.96,1010.46,535.96,1010.46z"/>
</g>
<g id="stone">
	<path class="st2" d="M689.4,986.35c-9.93,3.31,10.45,16.09,33.94,14.49c18.21-1.24,48.84,2.07,32.7-12.42
		S699.33,983.04,689.4,986.35z"/>
	<path class="st1" d="M377.75,911.44c0,0-16.97-69.94-35.18-66.63c-18.21,3.31-33.11,14.9-9.93,43.04c0,0-31.45-3.31-26.49,11.59
		s4.97,14.9,4.97,14.9s-14.9-10.76-21.52-2.48c-6.62,8.28,4.97,16.55,4.97,16.55s-53.8-9.11-34.77,6.62
		c19.04,15.73,18.21,4.14,92.71,7.45C427.01,945.79,445.63,918.06,377.75,911.44z"/>
	<path class="st3" d="M356.23,943.95c0,0,46.4-346.29,52.58-382.9c6.19-36.62-1.03-41.85,16.5-56.49
		c17.53-14.65,16.5-12.55,22.68-46.03c6.19-33.48,30.93-139.14,30.93-139.14l-8.25-20.92c0,0,9.28-46.03,9.28-54.4
		s5.16-4.18,9.28-10.46c4.12-6.28,7.22-9.42,25.78-17.79s71.14-16.74,86.6-19.88c15.47-3.14,22.68,11.51,31.96,13.6
		c9.28,2.09,60.83,63.82,64.95,73.23c4.12,9.42,39.18,216.56,44.33,237.48s40.21,241.67,43.3,253.18s16.5,28.25,16.5,28.25
		l14.43,128.68l-86.6,25.11L356.23,943.95z"/>
	<path class="st4" d="M349.45,943.95c0,0,47.08-346.29,53.36-382.9c6.28-36.62-1.05-41.85,16.74-56.49
		c17.79-14.65,16.74-12.55,23.02-46.03s31.39-139.14,31.39-139.14l-8.37-20.92c0,0,9.42-46.03,9.42-54.4s5.23-4.18,9.42-10.46
		c4.18-6.28,7.32-9.42,26.15-17.79c18.83-8.37,72.19-16.74,87.88-19.88c15.69-3.14,21.56,32.96,26.4,41.31
		c8.92,15.37,13.01,37.79,17.38,42.22c7.24,7.33,28.56,250.81,28.56,250.81l17.98,12.9c3.34,2.4,4.11,7.05,1.72,10.39l-7.29,10.23
		c0,0,22.41,167.42,24.83,176.31c3.14,11.51,8.69,127.89,8.69,127.89l12.5,87.48L349.45,943.95z"/>
	<path class="st5" d="M349.45,943.95l379.76,11.51l-12.5-87.48c0,0-5.55-116.38-8.69-127.89l-91.16-15.76l-4.75,15.43L395.14,620.9
		l-9.93,62.08L349.45,943.95z"/>
	<polygon class="st6" points="473.79,318.85 492.25,378.98 469.31,337.84 	"/>
	<path class="st2" d="M816.19,939.7c-0.7-12.95,0.58-17.07,8.75-20.55c8.17-3.48,11.83,12.41,11.83,12.41s19.76-12.03,11.45,3.9
		s-21.12,4.25-21.12,4.25S816.58,946.83,816.19,939.7z"/>
	<path class="st2" d="M779.21,942.48c-5.38-3.59-4.89-45.63,6.81-32.26c11.7,13.37,3.34,23.4,3.34,23.4s26.74-18.39,18.39-1.67
		S784.59,946.07,779.21,942.48z"/>
	<path class="st2" d="M739.76,852.67c-7.17-3.31-2.76-31.45,10.48-14.9C763.49,854.33,746.93,855.98,739.76,852.67z"/>
	<path class="st2" d="M733.69,874.19c0,0,31.45-23.18,31.45,0c0,23.18-11.59,11.59-11.59,11.59s-9.93,23.18-14.9,11.59
		C733.69,885.78,733.69,874.19,733.69,874.19z"/>
	<path class="st2" d="M743.38,809.01c0,0-13.51,24.31,2.7,18.91C762.28,822.52,759.58,798.21,743.38,809.01z"/>
	<path class="st7" d="M672.43,975.18l-81.12-9.93c0,0,0-49.66,13.24-71.19c13.24-21.52,33.11-48.01,71.19-48.01
		c38.08,0,71.19,24.83,77.81,39.73c6.62,14.9-1.66,54.63-14.9,66.22C725.41,963.59,672.43,975.18,672.43,975.18z"/>
	<path class="st3" d="M697.05,982.82c0,0,0.56-36.42,30.43-40.93s46.15,13.95,50.94,25.61c4.79,11.66-1.21,24.82-1.21,24.82
		s-27.39,4.55-53.87,4.14S697.05,982.82,697.05,982.82z"/>
	<path class="st1" d="M736.76,945.26c-3.62-2.08-8.59-7.05-9.69-17.54c-1.39-13.23,8.83-2.21,8.83-2.21s-3.31-19.31,4.97-13.8
		c8.28,5.52,9.38,17.11,9.38,17.11s17.34-11.66,10.87,4.34C754.64,949.17,740.38,947.34,736.76,945.26z"/>
	<path class="st2" d="M703.89,509.98c0,0,6.62-24.83,11.59-9.93C720.44,514.95,707.2,521.57,703.89,509.98z"/>
	<path class="st2" d="M723.75,533.16c0,0,21.52-16.55,9.93-16.55C722.1,516.61,710.51,534.82,723.75,533.16z"/>
	<path class="st2" d="M725.41,549.72c0,0,6.62-6.62,1.66-9.93C722.1,536.47,715.48,539.78,725.41,549.72z"/>
	<path class="st2" d="M737.83,610.97c-8.28-5.79-23.18-4.97-14.9,3.31C731.2,622.56,746.1,616.76,737.83,610.97z"/>
	<path class="st2" d="M738.65,620.9c0,0,6.62-18.21,11.59-6.62S737,627.52,738.65,620.9z"/>
	<path class="st8" d="M658.41,689.92l-41.47,25.8l-5.5,8.33c0,0-13.92,116.62-15.16,122.83c-1.24,6.21-31.04,50.91-31.04,50.91
		l-2.48,47.18l6.21,4.97l1.24-45.94l34.77-63.32c0,0,5.59-56.7,8.07-81.12c2.48-24.42,7.38-37.19,7.38-37.19L658.41,689.92z"/>
	<polygon class="st9" points="540.87,615.89 483.29,671.81 539.17,473.15 597.94,683.81 	"/>
	<path class="st3" d="M676.99,969.8c0,0,8.69-43.87,7.45-58.36s-14.49-26.49-22.76-30.63c-19.04-3.31-52.15,2.9-59.6,16.55
		c-7.45,13.66-13.24,48.42-10.76,67.88l81.12,9.93L676.99,969.8z"/>
	<path class="st3" d="M668.71,877.09c3.31,2.48,14.49,16.14,19.45,22.76c4.97,6.62,4.97,14.9,4.97,30.21s-2.48,29.39-2.48,29.39
		s4.14-4.14,4.97-7.45s1.66-32.28,2.48-39.73c0.83-7.45,0-7.45-7.45-18.21c-7.45-10.76-17.38-18.21-22.35-20.69
		c-4.97-2.48-25.66,1.66-25.66,1.66S665.4,874.61,668.71,877.09z"/>
	<polygon class="st7" points="684.02,963.59 671.33,950.35 670.78,937.1 659.74,910.61 667.47,938.76 668.02,952 681.81,968 	"/>
	<path class="st2" d="M699.75,879.99c0,0,24.83,1.66,12.42,5.79C699.75,889.92,694.78,884.95,699.75,879.99z"/>
	<path class="st2" d="M691.06,874.61c0,0,9.93-11.59,10.76-2.48S688.57,882.06,691.06,874.61z"/>
	<path class="st2" d="M682.78,845.64c0,0-19.45-1.66-28.14,2.48c-8.69,4.14-9.52,4.14-9.52,4.14s-9.11,4.97-3.72,5.79
		c0,0-1.24,9.52,9.52,8.28s20.69-7.45,20.69-7.45s-10.76,11.17,5.38,9.11c16.14-2.07,19.04-4.97,19.04-4.97s7.45,9.93,20.69,10.76
		c13.24,0.83,17.38-4.97,17.38-4.97s13.66,8.69,9.52,3.72C739.48,867.57,705.54,846.05,682.78,845.64z"/>
	<path class="st7" d="M694.93,972.89c0,0,3.75-12.51,16.5-15.16s26.29,2.51,28.86,7.58c12.18,24.09,3.33,28.91,3.33,28.91
		s-10.33,1.42-24.07,1.79C705.81,996.39,690.66,994.87,694.93,972.89z"/>
	<path class="st3" d="M693.93,974.96c0,0,3.61-12.19,15.74-14.77c12.12-2.59,22.43-2.13,28.57,5.48
		c6.14,7.61,10.76,21.11,3.72,28.14c-7.04,7.04-11.67,3.31-24.73,3.68C704.17,997.85,689.79,996.38,693.93,974.96z"/>
	<path class="st7" d="M754.38,952.55c-2.48,1.38-0.83,5.52,3.59,2.76C762.38,952.55,756.86,951.17,754.38,952.55z"/>
	<path class="st7" d="M749.69,948.97c0,0,2.48,3.86,4.41,0.55C756.04,946.21,753.28,945.93,749.69,948.97z"/>
	<path class="st7" d="M750.24,955.31c0,0,2.48-4.97-1.93-2.76S745,956.69,750.24,955.31z"/>
	<path class="st2" d="M735.47,943.72c0.73-0.86,3.54-12.63-1.01-12.12c-4.55,0.51-3.54,5.3-3.54,5.3s-0.44-8.27-2.78-8.59
		c-2.34-0.32-2.02,3.54-2.02,3.54s-3.03-3.79-5.05-3.79s3.54,12.63,3.54,12.63s-7.07-1.77-5.56,0.76S731.43,948.52,735.47,943.72z"
		/>
	<g>
		<polygon class="st6" points="605.41,229.53 624.92,292.16 606.85,374.5 549.1,383.34 547.86,388.72 609.52,382.51 631.9,294.62 		
			"/>
		<polygon class="st6" points="553.31,388.27 525.09,348.99 530.06,365.54 547.44,387.89 		"/>
	</g>
	<path class="st1" d="M597.52,224.82c0,0,7.45-23.59,13.66-14.9c6.21,8.69-2.48,9.93-2.48,9.93s14.9-11.17,19.87,1.24
		c4.97,12.42-9.93,8.69-9.93,8.69s24.83,9.93,9.93,13.66S597.52,224.82,597.52,224.82z"/>
	<path class="st1" d="M583.59,226.89c-4.97,0-15.87-18.21-4.69-13.24C590.07,218.62,588.55,226.89,583.59,226.89z"/>
	<path class="st1" d="M568.96,228.55c-0.28-6.07,4.97-13.66,7.45-2.48C578.9,237.24,569.24,234.62,568.96,228.55z"/>
	<path class="st1" d="M588.83,244.69c0,0,9.93-24.83-2.48-12.42C573.93,244.69,581.38,252.14,588.83,244.69z"/>
	<path class="st1" d="M586.35,212.41c0,0-16.14-19.87-8.69-23.59c7.45-3.72,12.42,8.69,12.42,8.69s2.48-23.59,11.17-17.38
		c8.69,6.21,2.21,10.35,2.21,10.35s11.04-7.17,15.45-1.66s-0.55,7.17-0.55,7.17s10.48,4.97,0,11.04
		C607.87,213.1,590.76,220,586.35,212.41z"/>
	<path class="st2" d="M654.64,848.12c2.07-6.21,12.83-20.28,19.45-15.31c6.62,4.97,6.62,4.97,6.62,4.97s19.87-16.55,21.52-6.62
		c1.66,9.93,1.66,9.93,1.66,9.93s31.45,1.66,18.21,9.93C708.85,859.29,652.57,854.33,654.64,848.12z"/>
	<path class="st1" d="M117.75,995.86c0,0-21.62-46.32-27.79-77.2c-6.18-30.88,38.6,75.66,38.6,75.66s-10.81-52.5-3.09-64.85
		s9.26,30.88,9.26,30.88s15.44-37.06,16.98-24.71c1.54,12.35-12.35,49.41-12.35,49.41s21.62-38.6,20.07-21.62
		C157.9,980.42,123.93,1020.57,117.75,995.86z"/>
	<path class="st1" d="M160.77,981.49c0,0,10.81-64.85,16.98-44.78c6.18,20.07,1.54,18.53,1.54,18.53s24.71-61.76,23.16-38.6
		c-1.54,23.16-12.35,47.87-12.35,47.87s37.06-26.25,23.16-7.72C199.37,975.32,171.58,993.85,160.77,981.49z"/>
	<polygon class="st6" points="435.55,489.22 470.1,510.05 483.95,538.01 464.96,513.09 423.95,501.35 	"/>
	<g>
		<path class="st6" d="M648.91,473.92c0,0-21.37,16.79-6.15,7.24C657.97,471.62,648.91,473.92,648.91,473.92z"/>
		<path class="st6" d="M634.27,497.66c0,0-3.69,8.97-4.75,11.6S634.27,505.04,634.27,497.66z"/>
		<path class="st6" d="M637.18,521.79c0,0,4.22,5.27,5.8-1.58C644.56,513.35,653,510.19,637.18,521.79z"/>
		<path class="st6" d="M497.79,272.16c0,0,6.33,3.16,11.08,18.2L497.79,272.16z"/>
		<path class="st6" d="M512.03,234.98c0,0,2.37-10.29,14.24,7.12L512.03,234.98z"/>
		<path class="st6" d="M551.59,335.46c0,0,1.58,11.08,7.91,15.03S551.59,335.46,551.59,335.46z"/>
		<path class="st6" d="M485.53,418.93c-2.77,9.1,1.98,20.97,1.98,20.97l5.93-33.63C493.44,406.27,488.3,409.84,485.53,418.93z"/>
		<path class="st6" d="M584.03,446.23l15.82-39.56C599.86,406.67,580.87,438.32,584.03,446.23z"/>
		<path class="st3" d="M648.91,764.3c0,0,6.33,7.91,9.49,15.82C661.57,788.03,648.91,764.3,648.91,764.3z"/>
		<path class="st3" d="M656.82,750.05c0,0,9.49,0,14.24,6.33C675.81,762.71,656.82,750.05,656.82,750.05z"/>
	</g>
</g>
<g id="pelvis">
	<path class="st10" d="M346.85,800.25c-3.31,6.62-7.58,34.85-2.99,54.73c4.59,19.88,83.22,0.3,94.56-7.11s13.49-47.96-9.11-59.63
		C406.73,776.56,350.16,793.63,346.85,800.25z"/>
</g>
<g id="lef_tleg">
	<g>
		<path class="st10" d="M406.73,849.36c0,0-2.46,65-2.07,86.91c0.41,23.18-0.83,39.73-7.04,45.11c-6.21,5.38-38.08-4.55-43.04-21.94
			c-4.97-17.38-7.45-65.39-10.76-93.54c-3.31-28.14,3.63-37.14,26.49-42.22C392.65,818.73,410.04,827.01,406.73,849.36z"/>
		<path class="st11" d="M390.58,863.29l15.59-4l14.9-4.69c0,0-26.76,3.31-39.18,3.31S390.58,863.29,390.58,863.29z"/>
		<path class="st11" d="M394.31,871.71c0,8.28-3.72,41.8-3.72,41.8l14.07,40.15v-28.97l2.07-64.98
			C406.73,859.71,394.31,863.43,394.31,871.71z"/>
		<path class="st11" d="M400.38,863.16c0,0-11.04,9.93-17.11,17.66s-5.52-18.21,27.32-24.28L400.38,863.16z"/>
	</g>
	<g>
		<path class="st12" d="M315.34,1004.34c15.44,2.08,18.3,4.56,20.25,16.13c1.9,11.26-31.93,14.1-43.23,13.96
			C280.59,1034.28,298.95,1002.14,315.34,1004.34z"/>
		<path class="st10" d="M362.9,933.81c-17.17,2.75-10.62,3.07-21.14,3.39c-11.07,0.34-20,1.9-32.34,5.19
			c-12.99,3.46-7.91-1.41-17.12,1.05c-9.46,2.53-24.54,25.07-1.27,47.04c20.92,19.75,26.61,18.04,37.83,14.26
			c10.69-3.6-6.12-5.47,15.14-9.14c19.29-3.33,47.12-8.82,56.52-16.47C409.56,971.77,378.77,931.27,362.9,933.81z"/>
		<path class="st11" d="M295.43,946.38c0,0,24.72-2.33,31.48,15.12c6.43,16.59,7.51,42.6-10.61,39.9
			C296.86,998.52,295.43,946.38,295.43,946.38z"/>
		<path class="st11" d="M361.35,933.53c0,0,5.35-6.61,17.51-6.15c11.63,0.44,11.72,4.52,2.52,5.07c-9.52,0.57-11.49,0.92-11.49,0.92
			s12.6,0.1,19.22,5.54c6.39,5.26,4.92,12.09,4.92,12.09s-7.4-11.52-15.89-14.84C369.32,932.7,361.35,933.53,361.35,933.53"/>
		<path class="st12" d="M289.88,1033.86c-9.15-2.1-13.14-18.18-17.89-31.65c-4.93-13.98-12.16-20.49-12.44-30.02
			c-0.29-9.68,3.29-21.23,27.16-22.76c22.22-1.43,30.36,7.02,36.58,20.3c5.96,12.73,1.02,24.69,1.29,43.78
			C322.86,1029.1,298.72,1035.89,289.88,1033.86z"/>
		<path class="st13" d="M308.56,1033.79c12.63-1.69,19.13-4.63,19.13-4.63c-4.89,1.48-13.05-1.12-16.52-3.76
			c-3.46-2.64-6.96-5.67-8.61-9.06c-6.56-16.6,3.91-25.22,1.66-42.36c-1.78-13.6-13.76-23.99-31.74-22.12
			c-19,1.97-18.08,18.66-15.34,29.81c0.54,2.18,9.23,12.94,9.97,15.33c3.58,11.66,1.56,17.05,7.31,27.6
			c2.31,4.24,5.92,7.98,14.21,9.42c1.41,0.59,3.48,0.92,6.39,0.85c2.81-0.07,5.48-0.22,8-0.44
			C305.22,1034.26,307.07,1034.07,308.56,1033.79z"/>
		<path class="st14" d="M311.69,1032.58c11.77-1.65,14.24-2.87,14.24-2.87c-4.65,0.96-11.18-1.29-14.37-3.46
			c-3.2-2.18-7.75-5.54-10.39-10.49c-6.11-16.18,3.64-24.59,1.55-41.31c-1.66-13.26-12.82-23.39-29.58-21.57
			c-17.71,1.92-16.85,18.2-14.29,29.07c0.5,2.12,8.6,12.62,9.29,14.95c3.33,11.37,1.46,16.63,6.81,26.91
			c2.15,4.14,5.52,7.78,13.25,9.18c1.31,0.58,6.82,1.08,9.53,1.01C300.34,1033.94,307.67,1033.31,311.69,1032.58z"/>
	</g>
</g>
<g id="right_leg">
	<path class="st10" d="M406.73,853.5c0,0,44.42,4.14,69.53,2.48c25.11-1.66,63.74,1.66,65.39-24.83
		c1.66-26.49-9.11-23.45-24.83-25.94c-15.73-2.48-24.28-2.21-59.6-4.41C424.74,798.77,364.51,823.7,406.73,853.5z"/>
	<path class="st11" d="M406.73,853.5c0,0,44.42,4.14,69.53,2.48c25.11-1.66,63.74,1.66,65.39-24.83
		c1.66-26.49-9.11-23.45-24.83-25.94c0,0-3.79,31-38.49,37.94C447.29,849.36,406.73,853.5,406.73,853.5z"/>
	<path class="st14" d="M495.27,990.99c0,0,0.39,5.8,2.71,6.96c2.32,1.16,10.83,1.93,21.66,1.55c10.83-0.39,22.04-6.19,29.78-7.35
		c7.73-1.16,29.01-7.35,29.39-13.15c0.39-5.8-3.87-10.83-3.87-10.83L495.27,990.99z"/>
	<path class="st14" d="M495.07,989.41c0,0,0.39,5.8,2.71,6.96s10.83,1.93,21.66,1.55c10.83-0.39,22.04-6.19,29.78-7.35
		c7.73-1.16,29.01-7.35,29.39-13.15s-3.87-10.83-3.87-10.83L495.07,989.41z"/>
	<path class="st13" d="M495.07,989.8c0,0,0.39,5.8,2.71,6.96c2.32,1.16,10.83,1.93,21.66,1.55c10.83-0.39,22.04-6.19,29.78-7.35
		c7.73-1.16,29.01-7.35,29.39-13.15s-3.87-10.83-3.87-10.83L495.07,989.8z"/>
	<path class="st12" d="M497.2,968.56c-3.87,7.35-3.48,14.31-2.32,20.11s14.31,7.35,26.68,6.19c11.61-1.09,11.99-5.41,40.99-10.83
		c16.33-3.05,16.5-7.48,14.31-19.21c-2.19-11.73-19.34-7.09-42.15-5.16C516.77,961.18,501.07,961.21,497.2,968.56z"/>
	<path class="st10" d="M501.53,841.18c0,0-9.8,6.15-5.66,12.16c3.62,5.26-2.1,19.05-2.16,31.21c-0.06,12.51,4.47,61.85,2.38,72.53
		c-2.14,10.93-6.33,16.49,5.16,19.3c11.51,2.82,23.92,1.88,32.45-0.92c8.46-2.78,13.04-4.62,14.57-13.73
		c1.5-8.94-5.92-18.63-5.92-18.63s-0.46-39.17-0.99-61c-0.51-20.81,10.34-68.53-7.7-72.37
		C515.66,805.89,502.07,831.54,501.53,841.18z"/>
	<path class="st11" d="M501.53,841.18c0,0-9.8,6.15-5.66,12.16c3.62,5.26-2.1,19.05-2.16,31.21c-0.02,3.63,0.35,10.34,0.83,18.32
		c1.18,19.54,3.03,46.62,1.55,54.21c-2.14,10.93-6.33,16.49,5.16,19.3c11.51,2.82,23.92,1.88,32.45-0.92
		c8.46-2.78,13.04-4.62,14.57-13.73c1.5-8.94-5.92-18.63-5.92-18.63s-0.46-39.17-0.99-61c-0.51-20.81,10.34-68.53-7.7-72.37
		C515.66,805.89,502.07,831.54,501.53,841.18z"/>
	<path class="st10" d="M496.4,853.78c0,0,8.28-1.1,13.24-3.31c4.97-2.21,21.52-14.9,21.52-14.9l-22.07,19.87L496.4,853.78z"/>
</g>
<g id="left_arm">
	<path class="st15" d="M478.74,716.09c0,0,41.39-33.94,30.63-24s34.49-30.35,39.46-32.56s18.15,9,1.93,28.01
		c-26.49,31.04-55.46,60.84-55.46,60.84L478.74,716.09z"/>
</g>
<g id="left_hand">
	<path class="st16" d="M551.17,667.39c0,0-4.55,2.9-6.21-4.55c-1.66-7.45,0-10.76,0.41-16.14s4.97-12.42,6.62-14.49
		c1.66-2.07,13.24,2.07,16.14,5.79c2.9,3.72-1.24,7.86-4.55,6.62s-5.38-2.69-5.38-2.69S565.65,666.98,551.17,667.39z"/>
	<path class="st15" d="M554.89,678.84c-8.69-3.72-11.33-6.22-9.93-13.24s11.34-13.94,13.13-17.88s8.77-8.67,16.85-0.63
		c8.08,8.04,6.22,16.82-0.36,24.2C567.99,678.68,563.58,682.57,554.89,678.84z"/>
	<polygon class="st17" points="594.67,669.98 592.24,665.81 546.2,633.11 544.6,639.16 	"/>
	<path class="st16" d="M561.83,654.43c-2.48-2.07-3.31-4.24,0.21-8.59c1.3-1.61-5.63-5.02-5.07-6.93c0.61-2.07,2.53-5.95,3.31-6
		c2.81-0.2,8.04,1.85,8.04,1.85s4.99,2.31,7.04,3.69s2.58,5.9,2.58,5.9s4.57,3.37,5.46,5.15c0.88,1.78,1.54,9.66,0.24,11.16
		c-1.31,1.5-3.13,6.05-6.27,4.54c-0.84-0.41-0.93-0.51-1.75-1.95c-0.7-1.23,1.44-3.43,1.44-3.43s-2.59,2.28-3.93,1.97
		s-1.19-0.83-1.66-1.24c-1.84-1.62,0.21-4.55,0.21-4.55s-2.59,3-5.59,0.93c-1.64-1.13,0.41-5.17,0.41-5.17
		S564.31,656.5,561.83,654.43z"/>
	<path class="st18" d="M547.35,620.46c0,0-5.9-0.67-9.76,10.38s-2.76,19.2,2.67,16.9C545.69,645.45,555.08,625.37,547.35,620.46z"/>
	<path class="st15" d="M553.79,668.91c0,0,6.69-6.07,6.62-13.8c-0.07-7.73,3.79-5.66,3.79-5.66s4.97-0.04,6.97-0.41
		s2.11,0.01,3.04-2.76c1.66-4.97-7.45-8.28-15.45-7.73c-3.21,0.22-3.31,0.55-8.28,5.52S532.82,680.5,553.79,668.91z"/>
	<path class="st16" d="M561.51,653.6c0,0-0.41,5.79-1.66,8.28c-1.24,2.48-3.31,6.62-3.31,6.62S564,666.01,561.51,653.6z"/>
</g>
<g id="torso">
	<g>
		<polygon class="st15" points="431.76,646.84 431.76,672.22 394.86,679.81 395.16,649.05 		"/>
		<path class="st16" d="M434.46,646.84c0,0,0,18.76,0,25.38c0,6.62-35.84,7.17-35.84,7.17l-0.75-30.35L434.46,646.84z"/>
	</g>
	<g>
		<path class="st13" d="M343.54,804.66c0,0,0.55-18.21,5.79-58.49c0.86-6.62,6.9-50.49,16.83-63.74s16.55-12.42,20.69-14.07
			c4.14-1.66,58.01-6.13,70.36-3.31c28.97,6.62,18.03,46.06,14.9,64.56c-3.31,19.59-10.48,30.35-15.45,44.15
			c-2.54,7.05-8.83,25.94-13.8,28.7s-36.42,9.38-63.46,8.28C352.37,809.63,343.54,804.66,343.54,804.66z"/>
		<path class="st14" d="M343.54,804.66c0,0,0.55-18.21,5.79-58.49c0.86-6.62,6.9-50.49,16.83-63.74s16.55-12.42,20.69-14.07
			c4.14-1.66,37.25-3.17,37.25-3.17s-33.52,36.01-38.49,80.71c-1.74,15.64,2.07,50.08,2.07,50.08s60.15,3.72,55.18,6.48
			s-36.42,9.38-63.46,8.28C352.37,809.63,343.54,804.66,343.54,804.66z"/>
		<polyline class="st19" points="448.11,743.41 443.15,764.1 439.84,801.35 		"/>
	</g>
	<ellipse class="st15" cx="456.53" cy="707.88" rx="20.28" ry="36.9"/>
	<path class="st16" d="M467.57,739.17c0,0,0,7.02-11.73-1.4s-18.77-41.44-1.56-35.82C470.79,707.34,467.57,739.17,467.57,739.17z"/>
</g>
<g id="right_forearm">
	<g>
		<path class="st16" d="M495.71,767c0,0-2.07-17.38,16.14-33.52c15.24-13.51,15.48-37.42,28.7-38.08
			c12.33-0.61,11.27,14.46,9.02,28.03c-2.29,13.81-7.53,37.01-16.55,48.99c-9.52,12.64-10.74,18.06-24.62,14.02
			C493.49,782.1,495.71,767,495.71,767z"/>
	</g>
</g>
<g id="right_arm">
	<g>
		<path class="st16" d="M511.02,746.31c-4.76-7.04-14.9-19.04-19.04-29.39c-4.14-10.35-11.59-40.97-20.69-46.35
			c-9.11-5.38-12.83-4.97-23.18,5.79c-10.35,10.76-6.21,21.52,4.97,34.77c11.17,13.24,18.21,46.77,28.97,58.36
			c10.76,11.59,25.45,18,33.11,18.21C522.82,787.9,534.61,779.62,511.02,746.31z"/>
		<path class="st15" d="M484.53,735.13c-4.14-10.35-6.9-21.52-17.93-35.32c-6.61-8.26-12.69-32.56-19.73-22.21
			c-10.1,10.99-7.04,27.73,4.14,40.97c11.17,13.24,20.28,39.32,31.04,50.91C492.81,781.07,488.67,745.48,484.53,735.13z"/>
	</g>
</g>
<g id="right_hand">
	<g>
		<polygon class="st17" points="538.75,689.61 546.06,682.98 520.4,642.42 513.92,648.63 		"/>
		<path class="st16" d="M535.58,706.99c8.28,6.07,15.87,11.17,18.76-4.97c2.9-16.14,2.21-15.31,4.69-19.87
			c2.48-4.55,0,1.24,0.83-3.72s-3.72-7.04-3.72-7.04s-3.31-5.38-3.72-8.69c-0.41-3.31-5.38-2.9-9.93-6.21
			c-4.55-3.31-9.93,0.28-10.76,2.9c-0.83,2.62,3.05,2.65,2.21,6.76c-0.95,4.65-5.67,11.12-3.04,16.83
			C535.85,693.74,527.3,700.92,535.58,706.99z"/>
		<path class="st16" d="M542.89,708.64c-5.79,6.21-10.76,4.14-10.76,0.41s-7.45-12.83-10.35-16.55c-2.9-3.72-2.36-4.55-1.52-12
			c0.8-7.11-0.69-5.93-2.21-14.9c-0.35-2.04,1.24-4.97,3.31-4.55c2.07,0.41,5.52,4,8,12.28
			C531.85,681.6,548.68,702.44,542.89,708.64z"/>
		<path class="st20" d="M499.16,658.7l35.87-18.21c0,0,5.09-7.76-1.1-20.42c-6.35-12.97-14.9-13.24-14.9-13.24l-37.8,17.66
			c0,0-1.66,8,1.93,17.66C486.74,651.8,499.16,658.7,499.16,658.7z"/>
		
			<ellipse transform="matrix(0.8921 -0.4519 0.4519 0.8921 -236.6172 291.1256)" class="st21" cx="491.16" cy="640.92" rx="8.76" ry="19.52"/>
	</g>
</g>
<g id="head">
	<g>
		<path class="st16" d="M385.72,606.23c-1.82-19.36-0.89-30.63,19.68-34.22c10.74-1.87,24.07-1.73,30.67,1.01
			c5.98,2.48,9.73,7.37,12.99,19.87c2.46,9.42,6.07,27.94,4.57,44.88c-0.96,10.86-15.59,15.41-26.76,17.29
			c-28.25,4.77-32.91-1.07-37.45-21.16C385.17,615,386.47,614.17,385.72,606.23z"/>
		<path class="st22" d="M376.93,611.38c0.66,18.6,5.28,30.56,8.55,37.11c6.07,12.14,19.11,7.17,22.71,7.06
			c34.01-1.04,25.23-41.11,23.16-62.14c-2.07-21.03-19.38-25.49-38.69-19.69C378.82,577.87,376.01,585.39,376.93,611.38z"/>
		<path class="st22" d="M389.34,575.65c0,0,8.06-4.3,27.55-5.4c17.61-0.99,25.12,6.92,25.12,6.92s-1.02,3.52-6.33,7.32
			c-4.96,3.55-24.84,3.63-24.84,3.63L389.34,575.65z"/>
		<path class="st22" d="M425.48,578.57c0,0,13.37,0.38,12.17,30.91c0,0-8.23-4.64-11.66-13.63S425.48,578.57,425.48,578.57z"/>
		<path class="st15" d="M427.37,620.02c3.27,6.36,9.58,9.81,14.19,7.9c0,0-3.37-15.46-3.91-18.43c-0.34-1.87-2.7-7.29-7.61-5.25
			C425.13,606.27,423.99,613.44,427.37,620.02z"/>
		<path class="st16" d="M429.38,620.25c3.27,6.36,9.58,9.81,14.19,7.9c0,0-3.37-15.46-3.91-18.43c-0.34-1.87-2.7-7.29-7.61-5.25
			C427.14,606.51,426,613.67,429.38,620.25z"/>
		<path class="st0" d="M434.32,627.58c0.69,1.77,2.73,2.72,4.56,2.13c1.83-0.59,2.79-2.5,2.13-4.27c-0.67-1.79-2.72-2.77-4.58-2.18
			C434.57,623.86,433.63,625.8,434.32,627.58z"/>
	</g>
</g>
</svg>
