<svg xmlns="http://www.w3.org/2000/svg" viewBox="0 0 960 1080"><defs><style>.cls-1{fill:#bb83c3;}.cls-2{fill:#856792;}.cls-3{fill:#f3e7d9;}.cls-4{fill:#ee5d4f;}.cls-5{fill:#121721;}.cls-6{fill:#1d2538;}.cls-7{fill:#273252;}.cls-8{fill:#7a462f;}.cls-9{fill:#a96443;}.cls-10{fill:#f5894e;}.cls-11{fill:#cc6d3d;}.cls-12{fill:#992c29;}.cls-13{fill:#29abe2;}.cls-14{fill:#f7bc4b;}.cls-15{fill:#ce9436;}.cls-16,.cls-19,.cls-21,.cls-22,.cls-24{fill:none;}.cls-16{stroke:#feed7f;stroke-width:2px;}.cls-16,.cls-22{stroke-miterlimit:10;}.cls-17{fill:#1689cb;}.cls-18{fill:#3e4c6f;}.cls-19{stroke:#1d2538;}.cls-19,.cls-21,.cls-24{stroke-linecap:round;stroke-linejoin:round;}.cls-20{fill:#c94039;}.cls-21{stroke:#273252;stroke-width:0.5px;}.cls-22{stroke:#992c29;}.cls-23{fill:#34283a;}.cls-24{stroke:#34283a;}</style></defs><title>28_team_meeting</title><g id="ground"><path class="cls-1" d="M493.93,748c-97.91,1-176.32,22.11-251.76,43-50.57,14-93.6,47-76.39,48s46.27-2,46.27-2-117.82,62.43-83.92,90C154,948,268.39,920,277,918s-14,16,73,25c32.18,3.33,40-24,40-28,28.06-6.69,70,4,70,4s-19,35,48,46c97.55,16,136.12-6.5,166.67-11C729,946,707,913,707,913s177.47,6,189.3-21c-20.44-44-153.85-82-153.85-82s60.25-12-1.07-28S591.83,747,493.93,748Z"/><path class="cls-2" d="M516,753c-53,1-104.28,17.15-123,32s52,22,52,22-16.73,27.44,57,7c74.23-20.58,130-16,133-29S569,752,516,753Z"/><path class="cls-2" d="M439.93,868c-9.46,3.37-8.56,12,11.26,8S453,865.85,439.93,868Z"/><path class="cls-1" d="M235,933c-11,4-12.49,16.61,7.19,12C259,941,246,929,235,933Z"/><path class="cls-2" d="M228,848.58c-15.67,5.16-112.52,55.21-31.64,51.6,41.38-1.85,70.58-7.34,104.65-21.18,32-13,30-27.37,43-37,36-24.26,52-28,35-35-44.32-18.25-151.67-2.76-124,22,19,17-20,26-20,26S243.36,843.52,228,848.58Z"/><path class="cls-1" d="M358.25,925.28c-20.58.21-169.69,74.49-3.67,62.7,138-9.8,46.77-45.6,46.77-45.6s95.48-30.52,25.32-34.09C348.3,904.3,358.25,925.28,358.25,925.28Z"/><path class="cls-2" d="M600,811c13-10,109,8,127,36,8.45,13.14-60,26-67,32s13,31-21,42-85,24-105,18-68-22-63-34,60-13,81-29,53-32,46-41S587,821,600,811Z"/><path class="cls-2" d="M330.4,846c-38.5,0-77,44-29.34,44S368.9,846,330.4,846Z"/><path class="cls-1" d="M857.26,984.55c23.23-8,2.78-22.63-23-22.17S834,992.57,857.26,984.55Z"/><path class="cls-1" d="M812.6,981.28c52.75-11.2,60.66-55.68-42.68-50.71S759.86,992.47,812.6,981.28Z"/><path class="cls-2" d="M717,883c-14,8,22,23,30,8S731,875,717,883Z"/></g><g id="cloud3"><path class="cls-3" d="M223.86,266.51S161.93,305,179,323L517.59,143.91s-1-35.34-33.82-30c0,0-16.3-60.22-66.14-46.77s-59,67.77-59,67.77S341,112.75,307.38,125C259,142.71,262.25,238.67,262.25,238.67s-10.77-20.35-42.07-1.77C196.46,251,223.86,266.51,223.86,266.51Z"/></g><g id="cloud2"><path class="cls-3" d="M639,320s5-36,28-36c0,0-14-12,7-23s32-14,50-5c0,0-28-58,46-82s121,32,97,42-62,39-87,40Z"/></g><g id="cloud1"><path class="cls-3" d="M464,604l-54,25s21-30-10-33-90,59-90,59-33-30-79-11-54,64-54,64-38,9-52,31,14,12,51,1,205-76,250-90S474,602,464,604Z"/></g><g id="K_left_leg" data-name="K left leg"><path class="cls-4" d="M345.59,802.42s7.58-1.56,18.77,1.56,9.27,12.36,8.42,14.66-10.7,6.86-32.24,5.34-22.11-2.87-34.24-2.28c-13.19.64-7.41-21.62-3.61-28.67S345.59,802.42,345.59,802.42Z"/><path class="cls-5" d="M344.3,791.49s6.5-1.73,17.77,1.42,11.77,18.31,10.93,20.62-10.74,6.9-32.34,5.38-27.94-.4-40-2.24c-6.64-1-1.8-21.8,2-28.89S344.3,791.49,344.3,791.49Z"/><path class="cls-6" d="M307.86,567.15c1.83,1.43,63.79,92.45,63.79,92.45s5.81,19.8,4.67,24.95-28.22,106-28.22,106l-19,4-21.72-5.82,22.21-105.22s-65.95-95.86-69-100.38S281,546.24,307.86,567.15Z"/><path class="cls-7" d="M324,592c1.83,1.43,47.65,67.6,47.65,67.6s5.81,19.8,4.67,24.95-28.22,106-28.22,106l-19,4L338,766l25-92s-23-37.48-26-42S297.15,571.09,324,592Z"/></g><g id="K_right_leg" data-name="K right leg"><path class="cls-4" d="M293.88,843.78s7.37-1.49,18.41,1.49,9.39,11.83,8.63,14-10.29,6.57-31.4,5.11-21.71-2.75-33.56-2.19c-12.89.62-7.82-20.68-4.29-27.43S293.88,843.78,293.88,843.78Z"/><path class="cls-5" d="M292.33,833.32s6.31-1.65,17.41,1.36,12,17.52,11.25,19.73-10.31,6.61-31.49,5.14-27.35-.37-39.15-2.14c-6.52-1-2.33-20.85,1.21-27.64S292.33,833.32,292.33,833.32Z"/><path class="cls-7" d="M211.2,549.75s-10.09,17.12-2.58,36.66C216,605.58,242.87,631.73,293,586,323.79,557.91,242.65,532.75,211.2,549.75Z"/><path class="cls-7" d="M217.1,601.12c35,44.7,62,84.46,62,84.46-.88,7.15,1.92,7.15,1.92,7.15L246,816s-1.36,14.24,4.77,16.89,32.92,3.51,32.92,3.51l15.56-3.51s43.86-130.06,44.86-133.09,4.2-18.38,1.55-24.58S309.54,610,282.17,574C253.85,536.81,180.69,554.63,217.1,601.12Z"/><path class="cls-6" d="M217.1,601.12c35,44.7,62,84.46,62,84.46-.88,7.15,1.92,7.15,1.92,7.15L246,816s-1.36,14.24,4.77,16.89,32.92,3.51,32.92,3.51l15.56-3.51L272,807s27.66-109.68,28.15-111.16c1-3-43.5-85.64-46.15-91.84s28.17-30,28.17-30C253.85,536.81,180.69,554.63,217.1,601.12Z"/></g><g id="M_right_arm" data-name="M right arm"><path class="cls-8" d="M436.48,354.07c-18.88,2.33-83.35,7.12-105.14,14s-14.77,48.57,14.08,45.54,85.79-6,104.47-11.34S455.36,351.75,436.48,354.07Z"/><path class="cls-9" d="M427.37,380.3s-7.91,19-9.49,20.57c-5,5-55.76,12-26.9,9s40.23-2.27,58.91-7.59S427.37,380.3,427.37,380.3Z"/></g><g id="K_left_arm" data-name="K left arm"><path class="cls-10" d="M454,400s-56.27,23.56-61,33c-5,8-12.75,35,16.87,25.08s62.58-31.16,64.36-40.59S479.83,395.41,454,400Z"/><path class="cls-11" d="M318.76,423.3s61.74-1,81.74.82,29.78,21.77,10.44,33.19-57.59,1.43-80.31,2.2S291.57,433,318.76,423.3Z"/><path class="cls-10" d="M318.76,423.3s61.74-1,81.74.82,29.78,21.77,10.44,33.19-57.59,1.43-80.31,2.2S291.57,433,318.76,423.3Z"/><path class="cls-11" d="M318.76,423.3,353,438s11.91,14.36,19,15c20,1.8,58.28-7.11,38.94,4.31s-57.59,1.43-80.31,2.2S291.57,433,318.76,423.3Z"/><path class="cls-11" d="M410,448l-12,6s-17.75,14,11.87,4.08,62.58-31.16,64.36-40.59c.92-4.86-20.74-19.67-35.23-11.49-4.06,2.29-2.79,24.58-7,27C422.08,438.69,416.46,445.28,410,448Z"/></g><g id="S_right_arm" data-name="S right arm"><path class="cls-10" d="M578.36,486.1s-51.07-13.42-56.51-15.51S491.54,488.89,517,502s42,18,60,17C594,518.06,592.32,494.23,578.36,486.1Z"/><path class="cls-10" d="M608.66,466.39S583.42,485,571,490.63s-5.33,29.14,8.21,27.86,42.35-19.17,48.13-28.71S630.85,457.6,608.66,466.39Z"/><path class="cls-11" d="M608.66,466.39S583.42,485,571,490.63s-9.57,22.65,4,21.37,46.59-12.68,52.37-22.22S630.85,457.6,608.66,466.39Z"/><path class="cls-12" d="M650.3,447.51s-2-1.93-24.38,9.25c-12.44,6.21-29,15.85-29,15.85l16.7,30.82S653,486,661.85,469.71,650.3,447.51,650.3,447.51Z"/><path class="cls-11" d="M578.36,486.1s-51.07-13.42-56.51-15.51S491.54,488.89,517,502s40,12,58,11C592,512.06,592.32,494.23,578.36,486.1Z"/></g><g id="M_legs" data-name="M legs"><path class="cls-13" d="M464.12,762.78c-1.48,0-12.51,7.69-22.12,19.22-8.09,9.7-3.16,14.5,5,18,7,3,15.2,6,31.53-6.48,9.77-7.47,17.29-14.41,18.25-19.21s-1.92-19.22-1.92-19.22Z"/><path class="cls-5" d="M464.12,760.86c-1.48,0-6.2,4.11-17.22,14.29-13.9,12.85-7.58,16.19-4.8,18.26,8.9,6.59,18.17,7.8,35.47-1.81,3.33-1.85,8.1-7.44,10.57-9.6,5.49-4.83,8-9.18,8.64-12.49,1-4.81-1.92-16.34-1.92-16.34Z"/><path class="cls-13" d="M562.4,758.54c1.73,0,14.36,6.26,25.6,18.46,9.46,10.27,4.27,12.39,0,17-8.22,8.89-26.89,7.22-46-6-11.44-7.91-16.7-12.17-17.83-17.26s2.25-20.34,2.25-20.34Z"/><path class="cls-5" d="M555.12,751.42C556.85,751.42,571,762,585,773c11,8.63,8,12,1,18-7.89,6.76-21.51,5.15-35-4-3.09-2.1-17.24-10.16-17.24-10.16s-8.81-6.66-9.59-10.17c-1.12-5.08,2.25-18.3,2.25-18.3Z"/><path class="cls-14" d="M450.67,507.22c0,10.23-1.67,32.09-1.67,47.78,0,40,0,81.24.67,85,.95,5.23,9.95,113.06,14.33,121,0,0,4.31,4.28,9.72,3.7,11.53-1.23,23.55-5.68,24-8.64.92-5.81-3.67-67-1.74-115a300.53,300.53,0,0,1,9.93-64.55C521.76,482.24,450.67,471.68,450.67,507.22Z"/><path class="cls-15" d="M487.17,602.34S472,633.73,473,639s-13.38,113.06-9,121c0,0,4.31,5.28,9.72,4.7,11.53-1.23,23.55-5.68,24-8.64.95-6-.74-115.06-.74-115.06s8.55-62.24,8.93-64.54C521.76,482.24,487.17,602.34,487.17,602.34Z"/><path class="cls-14" d="M525.62,493S449.75,472.52,449,506s111.56,60,116,9C567.87,482,525.62,493,525.62,493Z"/><path class="cls-14" d="M503,541c-.26,6.08,16.71,87.22,18.58,103.8,3.34,29.49.18,113.18.18,113.18s13.27,3.88,18.6,3.88,18.87-8.69,18.87-8.69,2.17-61.91,2.88-79.74c1.38-34.29,4.81-8.26,6.88-53,1.92-41.2-7.83-109.45-18.41-122.83C539.8,484,505.65,479.1,503,541Z"/><polyline class="cls-15" points="451.11 516.65 479 528 558.71 510.32 451.11 516.65"/><path class="cls-16" d="M498.91,519.45S472.18,534.34,486,540s17.65-19.35,17.65-19.35,0,15.38,9.6,13.45S511.48,517.31,498.91,519.45Z"/><path class="cls-15" d="M554.43,546.61C554.31,549.31,547,600,547,600l-25,34.9L521.76,758s13.27,3.88,18.6,3.88,18.87-8.69,18.87-8.69S568.11,656.43,566,669s6-37,6-37-1.43-122.61-12-136C549.22,482.35,557.08,484.71,554.43,546.61Z"/><path class="cls-14" d="M470,642s7,39,4,61c0,0-6-29-7-39S470,642,470,642Z"/></g><g id="M_torso" data-name="M torso"><path class="cls-17" d="M495.62,346.22l-70.42,8.14L428,381.31l9.23,33.53,11,100.63s34,5.78,65.67,1.74a417.4,417.4,0,0,0,52.44-9.91L572.16,406l4.09-19.62s5-25.52,1.54-26.58S523,344.7,495.62,346.22Z"/><path class="cls-13" d="M535.33,374.62l-6.15,45L507.93,474,489.72,506.8l-41.45,8.67s34,5.78,65.67,1.74a417.4,417.4,0,0,0,52.44-9.91L572.16,406l4.09-19.62s5-25.52,1.54-26.58S561.39,372.75,535.33,374.62Z"/><path class="cls-8" d="M476.1,380.85c6.47,9.25,19.41,12,31.43,9.25s14.78-7.4,15.71-14.79,4.62-24.95-5.55-27.73-36-5.54-43.44,8.32C474.25,355.9,469.63,371.61,476.1,380.85Z"/><path class="cls-18" d="M444.79,406.31l2,20s72.79,12.11,117.43-3.5V405.61S507.9,424.47,444.79,406.31Z"/><path class="cls-18" d="M446,430.49l1.92,19.3s71,10.85,114.53-4.81l0-16.64S508.48,443.71,446,430.49Z"/></g><g id="M_head" data-name="M head"><path class="cls-7" d="M545,322.06c-1.61,34.42-8.68,45.14-30.87,45.29-16.77.11-30.16-20.75-29.89-45.94S498.22,273.82,515,274C531.53,274.18,546.74,285.76,545,322.06Z"/><path class="cls-8" d="M532.43,313.81c.23-27.91-1.92-35.51-25-37.49-12-1-27.75-.89-34.79,3-6.38,3.5-7.41,8-9.83,22.76-1.83,11.15-2.89,36.95.29,55.65,2,12,15.5,12.83,28.06,13.09,18.28.38,37.41-6.65,39.67-23.11C533.92,325.41,532.35,323.07,532.43,313.81Z"/><path class="cls-9" d="M531.5,339.87c3.55-19-1.53-39.49-24.42-41.52-11.94-1.06-35.51,4.51-36.65,17.26-1.25,13.81-2.25,27.35.24,39.37,2.13,10.33,9.58,15.74,23.55,14.73,15.9-1.16,22.09-.19,29.16-8.82S529.7,349.45,531.5,339.87Z"/><path class="cls-7" d="M468,281c-4.82,9.06-3.13,8.58-4.64,16.64C463,299.34,469,293,469,293s2.05,1.76,13.81,3.54S499,295,499,295s8.93,16.44,11.87,22.95a29.21,29.21,0,0,0,8.32,10.45l17.38-4.09c.86-17.36-1.09-44.05-12.1-48C504.32,269.06,472.82,271.94,468,281Z"/><path class="cls-9" d="M537.58,332.57c-2.32,9.29-8.78,15.76-14.49,14.74,0,0,.41-21.11.37-25.14,0-2.52,1.47-10.31,7.55-9.22S540,323,537.58,332.57Z"/><path class="cls-3" d="M534.29,339.19a4.35,4.35,0,0,1-4.65,3.66,3.86,3.86,0,0,1-3.47-4.43,4.36,4.36,0,0,1,4.66-3.72A3.85,3.85,0,0,1,534.29,339.19Z"/><path class="cls-6" d="M489.52,327.66c-.29,3.44-1.89,6.08-3.59,5.93s-2.85-3-2.59-6.48,1.87-6.22,3.59-6.06S489.82,324.18,489.52,327.66Z"/><path class="cls-6" d="M467,323.75c-.29,3.14-1.28,5.59-2.19,5.52s-1.45-2.65-1.17-5.78,1.26-5.71,2.2-5.64S467.31,320.58,467,323.75Z"/><path class="cls-19" d="M484.4,311.34a7.66,7.66,0,0,1,8.53,2.76"/><line class="cls-19" x1="464.16" y1="313.41" x2="469.61" y2="312.62"/></g><g id="S_hair" data-name="S hair"><path class="cls-7" d="M578,434c-1,1-7,24,10,26s28-13,15-22S578,434,578,434Z"/></g><g id="S_legs" data-name="S legs"><path class="cls-10" d="M639.24,635c-.07,2.78,1,32.48,2.44,44.59s8,94.21,10.57,109.79c2.3,14,19,16.53,22.8,3.7s1.33-55.55,7.28-83.12,0-71.37-15.83-73.86A109,109,0,0,0,639.24,635Z"/><path class="cls-5" d="M637.61,618.28c-.07,2.78,1.13,32.49,2.76,44.6S642.63,688,642.63,688a52.13,52.13,0,0,0,21.79,9.22c13.34,2.39,20.19-3.82,20.19-3.82,6.4-27.55-.2-71.37-17.36-73.92A128.64,128.64,0,0,0,637.61,618.28Z"/><path class="cls-12" d="M677.05,782.79c1,1.28,5.62,10.5,6,14.43s2.88,11.65-11.71,11.45c-12-.17-17.31,5.8-24.25,6.11-15.35.67-24.84,1.42-33.22-3.72s6.06-3.79,25.31-13.76S674.79,779.89,677.05,782.79Z"/><path class="cls-10" d="M655.08,784.05c9.76-8.66,19-7.47,20.52-1.36.9,3.54-11,10.84-13.83,12.62-7.57,4.74-16.09,10.11-26.08,7.85S636.05,800.93,655.08,784.05Z"/><path class="cls-10" d="M654.57,667.23c0,3,2.12,35,4,48S669.82,816.37,672.91,833c2.77,15,19.29,16.78,22.61,2.74s.48-50.78,4.21-90c2.88-30.31-2.59-77-18.24-78.8A98.24,98.24,0,0,0,654.57,667.23Z"/><path class="cls-11" d="M654.57,667.23c0,3,2.12,35,4,48S669.82,816.37,672.91,833c2.77,15,24.22-2,21.09-16-2-9-3-23-12-73-5.39-30,15.14-75.24-.51-77.07A98.24,98.24,0,0,0,654.57,667.23Z"/><path class="cls-6" d="M652.37,649.25c0,3,2.28,35,4.31,48s3.13,27,3.13,27a48.26,48.26,0,0,0,21.81,8.76c13.23,1.86,19.76-5.22,19.76-5.22,5.33-30.06-2.74-77-19.75-78.78A116.43,116.43,0,0,0,652.37,649.25Z"/><path class="cls-5" d="M652.37,649.25c0,3,2.28,35,4.31,48s3.13,27,3.13,27a48.26,48.26,0,0,0,21.81,8.76L671,686s40-25.19,23-27S652.37,649.25,652.37,649.25Z"/><path class="cls-11" d="M670.55,829.52s-22.89,35.73-4,28.52,36-18.12,27.74-27.58S670.55,829.52,670.55,829.52Z"/><path class="cls-12" d="M697.12,825.26c.89,1.47,4.7,11.94,4.68,16.31s1.82,13.08-12.95,12.09c-12.11-.81-18.1,5.54-25.16,5.52-15.64,0-25.33.28-33.33-5.86s6.5-3.89,26.95-13.94S695.09,821.92,697.12,825.26Z"/><path class="cls-11" d="M674.72,825.51c10.72-9.11,19.94-7.3,20.94-.44.57,4-12.17,11.45-15.22,13.27-8.12,4.87-17.27,10.39-27.19,7.36S653.83,843.24,674.72,825.51Z"/></g><g id="S_torso" data-name="S torso"><path class="cls-14" d="M673.55,519.05c0,5.47-35.17,67.23-34.55,75.29-7,44-6,51.22-6,51.22s25,13.22,44,18.34,48.32,6.68,61-2,8.92-10,8.92-10L763,647.51l13-3.07s-2.71-32.31-16-82c-17-63.51-25-70.84-43-74.78S673.6,513.59,673.55,519.05Z"/><path class="cls-15" d="M673.55,519.05c0,5.47-35.17,67.23-34.55,75.29-7,44-6,51.22-6,51.22s25,13.22,44,18.34c0,0,3,0,5-42s21-74.78,16-105.51C680,512.45,673.6,513.59,673.55,519.05Z"/><path class="cls-14" d="M612.05,452.75S614,486.56,622,495.8c11.81,13.65,53.95,30.83,53.95,30.83s6,8.21,23,3.12c28-8.36,45-13.23,33.07-35.79-5.39-10.16-26-31.44-37.64-41.43-14.18-12.18-31.31-21.29-47.25-20.2C618.09,434.33,612.05,452.75,612.05,452.75Z"/><path class="cls-15" d="M612.05,452.75S614,486.56,622,495.8c11.81,13.65,53.95,30.83,53.95,30.83s12.9,12.39,23,3.12L682,502l-5-33.8s-14-37-29.91-35.91C618.09,434.33,612.05,452.75,612.05,452.75Z"/><path class="cls-11" d="M595,440.52,613,463c1.84,2.58,9.82-21.09,7-27.47-2.22-5.06-6-7.26-7.37-11.53a4.18,4.18,0,0,0-7.56-1L593,432.32C592.1,433.82,594,439.08,595,440.52Z"/><path class="cls-15" d="M747,651.61l2-55.32s8,47.12,8,51.22S747,651.61,747,651.61Z"/></g><g id="S_left_arm" data-name="S left arm"><path class="cls-10" d="M663.23,495.64s7.39,42.55,6.27,53.67-24.17,24-28.91,2.3-9.54-44.38-9.34-54.43C631.48,486,658.81,477.94,663.23,495.64Z"/><path class="cls-11" d="M663.23,495.64S653.65,503.83,654,515c.22,7.06,2,32,2,32s-11.72,21.52-15.41,4.61c-4.73-21.69-9.54-44.38-9.34-54.43C631.48,486,658.81,477.94,663.23,495.64Z"/><path class="cls-12" d="M630.81,504.24c-.16-2-14.81-49.24,2.7-54.39,24.52-7,25.59,19,27.22,26.93s2.9,23.85,2.9,23.85Z"/><path class="cls-20" d="M651,489c-.06-.8,2-8,2-8l-19.49-31.15c24.52-7,25.59,19,27.22,26.93s2.9,23.85,2.9,23.85Z"/><path class="cls-10" d="M645.39,552.6s-4.32.4-3.39,19.4,5.29,53,6,60,11.66,11.63,17-5,6.48-57,5.21-73.45S647.06,539.37,645.39,552.6Z"/><path class="cls-11" d="M644,553c-.62,5.54-2.93,0-2,19s5.29,53,6,60,17-5,17-5l-10-85S645,544,644,553Z"/><path class="cls-11" d="M663.63,620.91s8.39,13.22.94,19S648,652,648,652s3.18,14.58-1,13-13-6-13-6c-4.47,5.48-3-23-3-23S647.31,618.56,663.63,620.91Z"/></g><g id="M_left_hand" data-name="M left hand"><path class="cls-8" d="M696.89,429.34c-.68-2.18-35.08-23.93-51.82-25-19.56-1.24-25.71,5.37-22,17.32s51.83,5,51.83,5Z"/><path class="cls-8" d="M677.14,416.38a53.36,53.36,0,0,1,13,3.52c5.9,2.63,7.93,2.28,11.86,14.1,2.29,6.88,2.82,9.59,3,17,.14,6.08-.9,5.81-3.67,7.4a4.37,4.37,0,0,1-5.34,2.47c-4-1-4-3.87-4-3.87s-.83,4.34-6,3-5-8-5-8,1.19,7.42-4.2,5.38c-2.58-1-5.58-1.47-5.31-8.47.1-2.69-.23-5.66-.32-8.29-.5-1.25-7.49-5.73-7.49-5.73l2.64,3.69s3.22,7.71,1.28,9.75c-3.83,4.05-7.93.1-9.43-2.19-1.95-3-8.3-8.55-4.17-15.14C661.23,419.48,663.38,414.26,677.14,416.38Z"/><path class="cls-9" d="M677.14,416.38a53.36,53.36,0,0,1,13,3.52c5.9,2.63,7.93,2.28,11.86,14.1,2.29,6.88,3.09,11.11,2.89,15.46l-6.92-9-6,.57S663.38,414.26,677.14,416.38Z"/></g><g id="S_head" data-name="S head"><path class="cls-7" d="M582.18,361.61c-.17-3.38,19.64-15.15,36.84-13.45C643.8,350.6,663,369,654.15,386c0,0,25.9-.75,26.77,16.38s-4.73,33.11-27.27,24.28c0,0-32.4-9.74-29.63-9.32S583.91,395.87,582.18,361.61Z"/><path class="cls-7" d="M568.42,376.3s-11.28-9.39-2.89-17.5S578,359,578,359s-11.09-24.8,2.34-21.55,12.44,33.25.28,36.59S568.42,376.3,568.42,376.3Z"/><path class="cls-10" d="M596.47,370.48c-6.1-7.29-12.35-7.34-23.84.74-9.41,7.07-10.68,25.56-10.88,42s9.52,33,26.16,31.55c18.29-1.64,19.06-2.22,24.34-10.37S613.82,391.25,596.47,370.48Z"/><path class="cls-11" d="M596.47,370.48c-6.1-7.29-12.35-7.34-23.84.74-9.41,7.07-6.48,36.55-4.41,49.91s19.69,23.64,19.69,23.64c18.29-1.64,19.06-2.22,24.34-10.37S613.82,391.25,596.47,370.48Z"/><path class="cls-14" d="M572.63,371.22s5-.44,16.5,6.37A45.73,45.73,0,0,1,608,399.69l4.49-3.57s-2.66-16.87-13.94-26.64C587,359.47,578.44,365.64,572.63,371.22Z"/><path class="cls-7" d="M631.22,408.23s-25,14.67-25.17,29.65,37.45,24,48.52,1.67S631.22,408.23,631.22,408.23Z"/><path class="cls-11" d="M606.86,402.37s-1.08-15.54,11.62-12.05,9.16,26.61-.37,29.94C602.75,425.61,606.86,402.37,606.86,402.37Z"/></g><g id="S_eye" data-name="S eye"><ellipse class="cls-7" cx="574" cy="392.09" rx="5.04" ry="2.6" transform="translate(143.17 937.62) rotate(-86.04)"/><path class="cls-21" d="M576.23,379a5.83,5.83,0,0,1,4.54,3.7"/></g><g id="K_neck" data-name="K neck"><path class="cls-11" d="M346.47,376.58l-20.92,30.24,25.57,42.41,26.71-45.15S381.54,366.93,346.47,376.58Z"/></g><g id="K_torso" data-name="K torso"><path class="cls-22" d="M352.5,451.5s2,40,5,44"/><path class="cls-14" d="M357,446c1-10-3-31.2-24-46-11.11-7.84-56.53,11.51-73.52,28.26C208,479,205,563,205,563s26.52,20.86,68,21c13.83,0,32-3,40-14l7-42S356,456,357,446Z"/><path class="cls-15" d="M280,414s-7,3-20,14c-53.38,48.74-55,135-55,135s26.52,20.86,68,21c13.83,0,32-3,40-14,0,0-38.44,12.36-63-10-6.69-6.1-20-33-20-33s-3-34,7-58S280,414,280,414Z"/><path class="cls-15" d="M287,575a49.13,49.13,0,0,1-19-13c-11.74-12.85-24-34-24-34s1,24,12,39S287,575,287,575Z"/></g><g id="K_necklace" data-name="K necklace"><path class="cls-22" d="M345.55,400c4.46,9.15,10.76,25.2,11.95,38.55a350.56,350.56,0,0,1,0,56"/><ellipse class="cls-13" cx="358.29" cy="498.91" rx="3.19" ry="6.12" transform="translate(-30.19 23.13) rotate(-3.55)"/></g><g id="K_right_arm" data-name="K right arm"><path class="cls-11" d="M341,416.21S321.67,406,300.7,429s-13.77,47.09-.7,43S356.35,431.48,341,416.21Z"/><path class="cls-10" d="M297.26,536c-12.28,3.46-29-3.68-25-22.08S309.52,427,320,419.77c18.63-12.82,34.71,2,34,14s-17.18,48.84-28.58,66.5C306.6,529.46,309.54,532.54,297.26,536Z"/><path class="cls-11" d="M273.35,511.64c4-18.4,36.17-84.65,46.66-91.87,18.63-12.82,16,1.88,0,23.47-5.65,7.64-10.77,30.1-18.83,38.6-14.73,15.51-7.36,17.11-8.58,21.36C279.8,548,269.35,530,273.35,511.64Z"/><path class="cls-10" d="M366.77,532.38c-13.88-6.12-70.56-36-83.13-27.6s-20.29,27.47,7.59,35.81c31.94,9.55,70.1,18.62,80.25,18.22C383.23,558.35,385.69,540.71,366.77,532.38Z"/><path class="cls-11" d="M291.84,524c-1.87-4.18,1.42-20.4,1.42-20.4s-3-5.29-11,.08c-12.57,8.44-18.94,28.58,8.94,36.92,31.94,9.55,63.88,16.15,63.88,16.15s-6.28-2.92-14.87-7C321.94,541,293.11,526.82,291.84,524Z"/><path class="cls-11" d="M318.71,510.32s-6.59-6.86-16.35-6.33C296,504.34,318.71,510.32,318.71,510.32Z"/><path class="cls-10" d="M362.53,542.55c1.28-7,14.23-11.8,22.19-17.28s11.89-7.56,16.94-5.06-2.77,5.93-4.75,7.91a31.68,31.68,0,0,0-4.18,6.36c-1,3.14,7.45,4.8,17.37,4.32,8.17-.39,17.89-5.7,17.92,2.7,0,4.09-7.77,6.8-7.77,6.8s3.76,1.58,3,4.94c-.55,2.36-7.52,5.14-7.52,5.14s3.88,2.86.6,4.75a32.32,32.32,0,0,1-6.73,2.57s3.56,3.56-3.56,4.35c-5,.56-13.58,1.72-30.82-6.54C363.67,558,360.52,553.57,362.53,542.55Z"/><polygon class="cls-11" points="398.89 568.87 404.43 558.98 405.62 550.27 410.76 545.92 407.59 560.96 398.89 568.87"/></g><g id="M_right_forearm" data-name="M right forearm"><path class="cls-8" d="M271.11,413c-.19-2.55,21.76-30.07,29.77-34,19.71-9.68,29-5,30,9S279,414.59,279,414.59Z"/><path class="cls-9" d="M301.57,401.13C321.35,386.89,337,374,338,388s-36.82,19.46-36.82,19.46S286.32,412.11,301.57,401.13Z"/></g><g id="M_right_hand" data-name="M right hand"><path class="cls-8" d="M284.74,400.54s-12,6.45-17.45,11.67c-4.91,4.7-8.69,20.87-9.38,24a2.53,2.53,0,0,0,0,1.06c.54,2.73,3.12,15.06,5.69,17.4,1.54,1.4,4.78.22,6.07-2.11,2.16-3.9-.26-9.76-.26-9.76s4.28,13.11,5,14.24c1.84,2.91,5.56,3.78,9.49.27,1.25-1.12-2.9-9.23-2.9-9.23s2.9,8.44,5.27,8.7,3.77-.06,6.33-2.37S290,441.22,290,441.22s4.42,8.78,7.65,7c2.81-1.57,7.77-3.93,4.32-11.22a51.34,51.34,0,0,1-4.32-14s-1.58-5,3.16-2.9c6.11,2.7,14.25-.43,16.17-2.88,4.19-5.3,1.39-11.32-9.84-12.15C294.55,404.15,292.34,396.91,284.74,400.54Z"/><path class="cls-9" d="M299.59,405.88l-12.52,5L279,423.29l1.19,2.63-2.37,8.71s8.11,22.11,8.43,22.15c2.38.26,3.77-.06,6.33-2.37S290,441.22,290,441.22s-4-8.75-2.64-6.86c1.54,2.09,9.12,14.66,10.81,13.72,2.82-1.57,7.25-3.8,3.8-11.09a51.34,51.34,0,0,1-4.32-14l2.76-8.44s13.6,8.51,17.81.4c2.77-5.34-1.87-7.41-6.73-9.3C307.9,404.3,299.59,405.88,299.59,405.88Z"/></g><g id="K_hair" data-name="K hair"><path class="cls-6" d="M320.19,381.58c13.63,30.65,29.15,19.34,47.36,15.16S398.68,338.44,399,322c.2-10.4-1.42-13.69-21-15-15-1-42,19-42,19s-10.66,2.08-15,7C308,347.76,312.91,365.21,320.19,381.58Z"/></g><g id="K_head" data-name="K head"><path class="cls-11" d="M376.89,323.08s16.55,2.84,21.28,7S415,381,408,396c-3.05,6.53-41.52,18-52.71,6.19-3-3.13-.52-12.43-3.77-27.2-3.43-15.55,10.78-28.32,11.57-34.51C364.44,329.87,376.89,323.08,376.89,323.08Z"/><path class="cls-10" d="M397.42,331.87c4.69,4.13,16.44,44.68,9.36,60.63-4.68,10.47-34,12.16-36.78,5.5-7.22-17.34-3.67-47.43,7.16-58.89C390.42,325.09,394.86,329.62,397.42,331.87Z"/><path class="cls-11" d="M342.54,369.29c2.93,9.24,10.11,15.61,16.08,14.24s8.5-10,5.59-19.36S354,348.38,348,349.84,339.61,360,342.54,369.29Z"/><path class="cls-6" d="M364,340.4s4.3,22.91,2,30L360.52,381l-4.72-32.62Z"/><path class="cls-6" d="M401.57,320.87s-3.36,10.18-21.09,20.36c-9.6,5.51-11.05,3.83-15.67,5-11.36,2.92-4.83-23.15,13.13-33.95C396.11,301.4,401.57,320.87,401.57,320.87Z"/><path class="cls-18" d="M378,312c-14.19,9.43-24.63,35.07-15.49,32.7A117.79,117.79,0,0,0,374,340.93c7.79-6.07,14.84-16.13,14.84-16.13.87,5.43-3.15,9.94-7.92,13.3a124.28,124.28,0,0,0,13.43-6.89c7.46-4.46,8.4-4.38,8-7.91C401.65,316.13,393.3,301.77,378,312Z"/><path class="cls-23" d="M393.26,354.8c.7,3.67,2.74,4.9,4.57,4.5s2.77-2.28,2.08-6-2.76-6.35-4.59-5.94S392.56,351.12,393.26,354.8Z"/><path class="cls-24" d="M389.05,345.72s1.12-4.22,5-5.36"/></g><g id="dog_head" data-name="dog head"><path class="cls-6" d="M503.66,782.87c8.5,1.72,52.6-.87,56.33-17.8,2.76-12.55,8-26.55,9.17-37.2a165,165,0,0,0,9.05-17c4.28-9.36,2.4-10.83-3.15-8.12s-15.81,12.44-15.81,12.44a67.4,67.4,0,0,0-30.87-9.65c-17.13-.92-13.15,4.71-19.55,12.7l-4.59,7.2s-12.27-6.27-20.35-7c-7.91-.67-10.63,2.65-14,11.46-3.45,9.07-3.61,10-1.7,15.22s8.8,15.1,16.42,22.39C484.64,767.59,495.34,781.2,503.66,782.87Z"/><path class="cls-7" d="M503.66,782.87c8.5,1.72,17.53,10.43,21.17-6.3,2.7-12.4,2.09-32.8,2.09-32.8s19.32-37.23,1.46-38.19c-17.13-.92-18.31,3.9-23.12,11.29l-3.2,7.44s-10.09-5.1-18.17-5.79c-7.91-.67-10.63,2.65-14,11.46-3.45,9.07-3.61,10-1.7,15.22s8.8,15.1,16.42,22.39C484.64,767.59,495.34,781.2,503.66,782.87Z"/><path class="cls-5" d="M473.33,721.93c-3,4,2.91,8.36,6,4.29S491,720.39,486,718.7C482.53,717.54,476.38,717.86,473.33,721.93Z"/><path class="cls-7" d="M537.7,711.79a191.73,191.73,0,0,0,2.18-21.48c.18-8.76-4.65-7.14-9.4.12-4.94,7.53-11.83,21.9-13.06,24.76S532.86,721.89,537.7,711.79Z"/><path class="cls-6" d="M534,692.23c1.76-8.82,0-6.12-4.72,1.12-4.92,7.51-4.6,9-5.84,11.83S532.44,700.07,534,692.23Z"/><path class="cls-5" d="M506.61,718.3c-1,2.68-1.11,5.12-.18,5.45s2.52-1.59,3.55-4.27,1.11-5.13.18-5.45S507.64,715.62,506.61,718.3Z"/></g><g id="dog_torso" data-name="dog torso"><path class="cls-12" d="M495.09,774.61s-5.56,15.23-9,18.76l-3.58-7.9S487.41,777.58,495.09,774.61Z"/><path class="cls-12" d="M492.77,781.13s2.34,12.67,1.1,17.16l-6.5-2.07A32.69,32.69,0,0,1,492.77,781.13Z"/><path class="cls-6" d="M663.72,841.73s5.22,36.06,3.45,44.57,1.37,19.44,5.08,25.2c2,3.55-5.18,16.25-5.18,16.25s-11.1,2.64-21.7-1.26c-9.21-3.38-7-8.44-1.15-10.77S636.44,890,636.44,890,626.23,850.86,625.56,845,658,822.2,663.72,841.73Z"/><path class="cls-7" d="M518.57,888.11c1.22-3.3,7.43-3.24,7.69-4.07,4.35-14.09,5.52-28.49,6.12-31.85,1.24-6.9-2.65-20.38-.1-35.25,2.46-14.36,27.32-.43,24.76,16.78-1.48,9.92-8.58,43.26-10.59,52.29a9,9,0,0,1-1.66,3.51l-7.62,7c-1.76,2.69-5.27,1.58-11.67-.49S516.9,892.57,518.57,888.11Z"/><path class="cls-7" d="M474,904.2c.81-8.57,11.44-8.08,11.44-8.08.63-1.11,2.72-3.21,2.93-4.34,1.65-8.69,1.15-28.89,1.55-32.77.82-8.06,0-32.52,1.55-51.15s24.69-2.79,24.8,15.92c.08,13.33-11.4,66-12.47,71,0,0-12.24,16.91-18.15,16.12S473.51,909.48,474,904.2Z"/><path class="cls-6" d="M560,771.31c3.68,8,.92,11.59,11.07,15.09,23.35,8,42.82,9.52,70,16.86,18,4.86,29.26,41.5,21.41,51.54s-38.72,7.66-57.74,19.12c-19.71,11.87-41.07-3.5-53-9.06s-41.91-26.74-49.22-34.22c-2.63-2.69-3.7-10-5.4-17.77-2.45-11.18-7-24,.28-34.25C502.33,771.63,556.32,763.33,560,771.31Z"/><path class="cls-7" d="M515.38,784.42l11,20.33s12.57,18.86,11.45,18.82l-12.71,21.35s-15.26-6.8-22.57-14.28c-2.63-2.69-8.31-8.87-10-16.59-2.44-11.16-.88-20.08,1.77-35.82Z"/><path class="cls-12" d="M560,767.74s1.85,2.31,1.53,7.09c0,0-15.49,5.29-44.56,9.58a84.87,84.87,0,0,1-25.55.07l1.12-8.54S526.34,781.43,560,767.74Z"/><path class="cls-7" d="M636.24,815.15c2.77-3.62,6.76-.9,17.45-18.35s14.58-46.42,1-55.74c0,0,15.08-4,26.54,23.21,11.8,28-20.78,59.27-23.73,61.67C644.48,836.55,628.38,825.41,636.24,815.15Z"/><path class="cls-6" d="M634.71,816.12c2.79-3.64,11.2,11,27.08-15.67,8.42-14.12,14-49.54-7.18-59.39,0,0,23.43-3.73,29.57,25.32,8,37.7-23.77,57.87-26.74,60.3C644.34,837.37,626.78,826.46,634.71,816.12Z"/><path class="cls-6" d="M623.25,850.06s-12.47,45.53-17.82,52.25-9.4,16.84-8.24,22.84-10.52,12.7-10.52,12.7-15-2.24-17.44-3.21-7.15-10.63-.58-10.76,10.61-27.67,10.61-27.67,2.67-49.42,4.51-54.83S626.2,830.87,623.25,850.06Z"/></g></svg>